<?xml version="1.0" standalone="no"?>
<!DOCTYPE svg PUBLIC "-//W3C//DTD SVG 20010904//EN"
 "http://www.w3.org/TR/2001/REC-SVG-20010904/DTD/svg10.dtd">
<svg version="1.0" xmlns="http://www.w3.org/2000/svg"
 width="474.000000pt" height="106.000000pt" viewBox="0 0 474.000000 106.000000"
 preserveAspectRatio="xMidYMid meet">

<g transform="translate(0.000000,106.000000) scale(0.100000,-0.100000)"
fill="#000000" stroke="none">
<path d="M1980 728 c0 -123 5 -230 11 -253 23 -84 98 -144 182 -145 36 0 37 1
37 35 0 31 -3 35 -25 35 -35 0 -79 24 -104 56 -20 25 -21 39 -21 255 l0 229
-40 0 -40 0 0 -212z"/>
<path d="M3852 708 c5 -15 28 -18 29 -3 0 6 -7 12 -17 13 -10 3 -15 -1 -12
-10z"/>
<path d="M240 694 c-75 -33 -113 -91 -113 -174 0 -110 80 -190 191 -190 69 0
111 26 258 164 151 139 176 154 233 137 70 -20 106 -106 72 -170 -17 -31 -70
-61 -108 -61 -31 0 -33 -2 -33 -35 0 -34 1 -35 40 -35 56 0 99 20 137 63 29
33 53 90 53 127 0 98 -94 190 -195 190 -62 0 -112 -30 -215 -126 -207 -192
-196 -184 -235 -184 -45 0 -87 21 -109 54 -9 14 -16 28 -16 31 0 3 40 5 88 5
l88 0 58 59 58 58 -33 38 c-19 21 -48 44 -66 51 -42 18 -109 17 -153 -2z m130
-69 c36 -19 37 -29 8 -49 -16 -11 -46 -16 -100 -16 l-78 0 16 25 c34 52 99 68
154 40z"/>
<path d="M1152 689 c-26 -13 -55 -39 -70 -62 l-27 -40 -3 -244 -3 -243 36 0
35 0 0 130 c0 72 2 130 4 130 2 0 20 -7 39 -15 79 -33 182 -7 230 56 48 65 54
139 15 214 -46 88 -161 121 -256 74z m142 -64 c83 -39 89 -154 10 -206 -73
-48 -171 1 -181 92 -4 39 -1 50 23 78 43 52 90 63 148 36z"/>
<path d="M1618 690 c-61 -32 -92 -82 -96 -155 -5 -78 20 -133 80 -172 35 -24
52 -28 108 -28 57 0 73 4 108 29 117 81 105 264 -20 325 -56 27 -130 27 -180
1z m170 -84 c33 -31 37 -39 37 -85 0 -43 -5 -55 -30 -81 -99 -99 -254 16 -190
140 19 37 59 59 108 60 29 0 46 -8 75 -34z"/>
<path d="M2370 635 l0 -75 50 0 c38 0 50 4 50 15 0 10 -11 15 -35 15 -24 0
-35 5 -35 15 0 10 10 15 30 15 20 0 30 5 30 15 0 10 -10 15 -30 15 -20 0 -30
5 -30 15 0 10 11 15 35 15 24 0 35 5 35 15 0 11 -12 15 -50 15 l-50 0 0 -75z"/>
<path d="M2980 635 c0 -60 3 -75 15 -75 12 0 15 15 15 75 0 60 -3 75 -15 75
-12 0 -15 -15 -15 -75z"/>
<path d="M3240 691 c-14 -27 -4 -47 31 -61 16 -7 29 -19 29 -27 0 -12 -8 -14
-36 -8 -44 8 -44 -14 0 -30 34 -12 60 3 64 37 2 20 -5 30 -33 47 -37 21 -40
47 -4 36 25 -8 46 4 28 16 -25 16 -68 10 -79 -10z"/>
<path d="M2497 663 c-17 -17 -5 -45 23 -54 36 -13 30 -32 -7 -23 -19 5 -24 3
-21 -7 7 -21 60 -24 75 -3 16 22 0 54 -27 54 -11 0 -20 5 -20 10 0 6 11 10 25
10 14 0 25 5 25 10 0 11 -63 14 -73 3z"/>
<path d="M2604 645 c-14 -21 -15 -31 -6 -51 15 -31 37 -40 70 -28 33 12 25 29
-13 29 -23 0 -30 4 -30 20 0 15 7 20 30 21 48 2 51 4 31 19 -30 23 -63 18 -82
-10z"/>
<path d="M2720 627 c0 -48 13 -67 46 -67 34 0 54 27 54 71 0 53 -27 55 -32 2
-2 -27 -8 -39 -20 -41 -15 -3 -18 4 -18 37 0 30 -4 41 -15 41 -11 0 -15 -11
-15 -43z"/>
<path d="M2857 652 c-22 -24 -21 -55 1 -75 22 -20 45 -21 74 -6 16 9 18 13 7
20 -8 4 -19 3 -27 -3 -10 -9 -17 -7 -30 5 -15 16 -13 17 26 17 35 0 42 3 42
20 0 38 -65 53 -93 22z m58 -12 c3 -5 -3 -10 -15 -10 -12 0 -18 5 -15 10 3 6
10 10 15 10 5 0 12 -4 15 -10z"/>
<path d="M3052 658 c-16 -16 -15 -73 1 -86 7 -6 32 -11 55 -10 l42 0 0 53 0
52 -43 1 c-24 1 -49 -4 -55 -10z m66 -42 c-2 -13 -10 -21 -23 -21 -23 0 -33
34 -14 45 20 13 40 -1 37 -24z"/>
<path d="M3360 620 c0 -45 2 -50 27 -56 40 -10 58 7 61 60 2 36 0 46 -12 46
-12 0 -16 -10 -16 -40 0 -29 -4 -40 -15 -40 -11 0 -15 11 -15 40 0 29 -4 40
-15 40 -11 0 -15 -12 -15 -50z"/>
<path d="M3490 589 c0 -64 3 -79 15 -79 10 0 15 10 15 29 0 24 4 28 19 24 34
-9 61 14 61 51 0 43 -15 55 -68 54 l-42 0 0 -79z m75 26 c0 -13 -8 -21 -22
-23 -19 -3 -23 1 -23 23 0 22 4 26 23 23 14 -2 22 -10 22 -23z"/>
<path d="M3637 652 c-44 -48 17 -118 72 -83 7 5 10 14 6 20 -5 9 -10 9 -21 0
-12 -10 -18 -9 -32 4 -15 16 -13 17 26 17 46 0 55 16 26 44 -21 21 -57 20 -77
-2z m58 -12 c4 -6 -6 -10 -22 -10 -22 0 -25 2 -13 10 19 12 27 12 35 0z"/>
<path d="M3760 614 c0 -41 4 -54 15 -54 11 0 15 11 15 36 0 27 5 37 20 41 34
9 23 31 -15 31 l-35 0 0 -54z"/>
<path d="M3850 615 c0 -42 3 -55 15 -55 12 0 15 13 15 55 0 42 -3 55 -15 55
-12 0 -15 -13 -15 -55z"/>
<path d="M3927 652 c-22 -24 -21 -55 1 -75 36 -33 92 -8 92 41 0 47 -61 69
-93 34z m63 -32 c0 -24 -26 -38 -42 -22 -16 16 -2 42 22 42 13 0 20 -7 20 -20z"/>
<path d="M4050 614 c0 -41 4 -54 15 -54 11 0 15 11 15 36 0 27 5 37 19 41 11
3 22 11 25 18 4 10 -6 14 -35 13 l-39 0 0 -54z"/>
<path d="M2707 484 c-13 -13 -7 -24 14 -24 11 0 19 5 17 12 -5 14 -22 21 -31
12z"/>
<path d="M2902 478 c-19 -19 -14 -30 8 -18 11 6 20 15 20 20 0 14 -14 12 -28
-2z"/>
<path d="M3240 476 c0 -9 7 -16 16 -16 17 0 14 22 -4 28 -7 2 -12 -3 -12 -12z"/>
<path d="M4110 475 c0 -8 7 -15 15 -15 8 0 15 7 15 15 0 8 -7 15 -15 15 -8 0
-15 -7 -15 -15z"/>
<path d="M2370 405 c0 -60 3 -75 15 -75 10 0 15 10 15 30 0 27 3 30 33 30 39
0 57 15 57 47 0 28 -27 43 -79 43 l-41 0 0 -75z m90 30 c0 -10 -10 -15 -30
-15 -20 0 -30 5 -30 15 0 10 10 15 30 15 20 0 30 -5 30 -15z"/>
<path d="M2640 405 c0 -60 3 -75 15 -75 12 0 15 15 15 75 0 60 -3 75 -15 75
-12 0 -15 -15 -15 -75z"/>
<path d="M2780 462 c0 -10 -6 -24 -12 -31 -10 -11 -10 -14 0 -18 7 -3 12 -22
12 -44 0 -28 4 -39 15 -39 11 0 15 11 15 39 0 22 6 42 13 45 10 5 10 7 0 12
-7 3 -13 14 -13 24 0 10 -7 20 -15 24 -10 3 -15 -1 -15 -12z"/>
<path d="M3710 454 c0 -22 -3 -25 -23 -20 -33 8 -67 -19 -67 -53 0 -39 18 -51
73 -49 l47 1 0 73 c0 59 -3 74 -15 74 -9 0 -15 -10 -15 -26z m-10 -59 c10 -12
10 -18 0 -30 -25 -30 -61 -7 -46 30 3 8 12 15 19 15 8 0 20 -7 27 -15z"/>
<path d="M3900 405 c0 -60 3 -75 15 -75 12 0 15 15 15 75 0 60 -3 75 -15 75
-12 0 -15 -15 -15 -75z"/>
<path d="M4010 405 l0 -75 40 0 c22 0 40 5 40 10 0 6 -11 10 -25 10 -24 0 -25
2 -25 65 0 51 -3 65 -15 65 -12 0 -15 -15 -15 -75z"/>
<path d="M4193 473 c-7 -3 -13 -13 -13 -23 0 -10 -6 -21 -12 -24 -10 -5 -10
-7 0 -12 6 -3 12 -23 12 -45 0 -28 4 -39 15 -39 11 0 15 11 15 39 0 23 5 41
13 44 9 3 9 7 1 18 -7 8 -13 21 -15 30 -2 9 -10 14 -16 12z"/>
<path d="M4620 406 c0 -70 2 -76 20 -76 19 0 21 5 18 72 -2 60 -6 73 -20 76
-16 3 -18 -6 -18 -72z"/>
<path d="M2522 424 c-24 -17 -30 -62 -10 -82 7 -7 26 -12 43 -12 38 0 55 16
55 51 0 27 -30 59 -55 59 -6 0 -21 -7 -33 -16z m53 -44 c0 -16 -6 -26 -18 -28
-19 -4 -32 20 -23 44 9 25 41 13 41 -16z"/>
<path d="M2860 420 c-22 -22 -25 -42 -10 -71 13 -24 72 -26 91 -3 11 14 9 15
-24 9 -30 -6 -37 -4 -37 9 0 12 9 16 35 16 41 0 47 20 13 44 -30 21 -44 20
-68 -4z m60 -19 c0 -6 -9 -9 -20 -8 -11 1 -20 5 -20 9 0 4 9 8 20 8 11 0 20
-4 20 -9z"/>
<path d="M2992 424 c-24 -16 -28 -44 -12 -75 13 -23 71 -26 89 -5 15 18 -2 30
-26 18 -25 -13 -43 -4 -43 19 0 23 25 35 43 21 7 -6 19 -7 26 -3 10 7 8 12
-10 25 -29 20 -39 20 -67 0z"/>
<path d="M3128 433 c-26 -4 -28 -8 -28 -54 0 -36 4 -49 14 -49 10 0 16 13 18
37 2 27 8 39 21 41 14 3 17 -4 17 -37 0 -30 4 -41 15 -41 11 0 15 11 15 43 0
42 -14 68 -34 66 -6 -1 -23 -4 -38 -6z"/>
<path d="M3330 433 c-21 -7 -40 -33 -40 -54 0 -42 73 -67 99 -35 16 19 -5 32
-25 15 -20 -16 -48 9 -38 35 5 14 14 16 40 11 41 -7 46 11 8 25 -14 6 -26 10
-27 9 -1 0 -9 -3 -17 -6z"/>
<path d="M3450 433 c-21 -8 -30 -24 -30 -53 0 -38 18 -50 72 -50 l48 0 0 50
c0 46 -2 50 -24 50 -13 0 -30 2 -38 4 -7 3 -20 2 -28 -1z m49 -36 c15 -19 -10
-53 -33 -44 -16 6 -22 38 -9 50 10 11 30 8 42 -6z"/>
<path d="M3780 420 c-48 -48 7 -110 74 -84 30 12 16 25 -19 18 -28 -5 -35 -3
-35 10 0 12 10 16 39 16 35 0 39 2 34 21 -5 18 -39 39 -64 39 -5 0 -18 -9 -29
-20z m60 -19 c0 -6 -9 -9 -20 -8 -11 1 -20 5 -20 9 0 4 9 8 20 8 11 0 20 -4
20 -9z"/>
<path d="M4265 416 c-38 -38 -15 -86 41 -86 53 0 75 64 32 94 -31 22 -45 20
-73 -8z m63 -32 c4 -27 -26 -40 -46 -20 -13 13 -13 18 -2 31 18 21 44 15 48
-11z"/>
<path d="M4418 433 c-26 -4 -28 -8 -28 -54 0 -37 4 -49 15 -49 11 0 15 11 15
36 0 27 5 37 20 41 18 5 30 35 13 32 -5 -1 -20 -4 -35 -6z"/>
<path d="M4491 421 c-23 -23 -26 -43 -11 -72 8 -15 22 -19 60 -19 l50 0 0 50
c0 41 -3 50 -17 50 -10 0 -28 3 -40 6 -14 4 -28 -1 -42 -15z m67 -37 c4 -27
-26 -40 -46 -20 -21 20 -8 48 20 44 14 -2 24 -11 26 -24z"/>
<path d="M2700 380 c0 -43 3 -50 20 -50 17 0 20 7 20 50 0 43 -3 50 -20 50
-17 0 -20 -7 -20 -50z"/>
<path d="M3240 380 c0 -38 4 -50 15 -50 11 0 15 12 15 50 0 38 -4 50 -15 50
-11 0 -15 -12 -15 -50z"/>
<path d="M4110 380 c0 -38 4 -50 15 -50 11 0 15 12 15 50 0 38 -4 50 -15 50
-11 0 -15 -12 -15 -50z"/>
</g>
</svg>
